<svg width="20" height="20" viewBox="0 0 20 20" fill="none" xmlns="http://www.w3.org/2000/svg">
<path fill-rule="evenodd" clip-rule="evenodd" d="M12.6351 15.1863C12.9064 15.3647 12.9817 15.7293 12.8033 16.0006L10.8705 18.9403C10.6921 19.2116 10.3276 19.2869 10.0563 19.1085C9.78494 18.9301 9.70961 18.5656 9.888 18.2943L11.8208 15.3546C11.9992 15.0833 12.3638 15.008 12.6351 15.1863Z" fill="white"/>
<path fill-rule="evenodd" clip-rule="evenodd" d="M10.8716 12.2468C11.1428 12.4254 11.2179 12.79 11.0393 13.0612L8.71701 16.5888C8.53846 16.86 8.17386 16.9351 7.90265 16.7566C7.63144 16.578 7.55632 16.2134 7.73487 15.9422L10.0572 12.4146C10.2357 12.1434 10.6003 12.0683 10.8716 12.2468Z" fill="white"/>
<path fill-rule="evenodd" clip-rule="evenodd" d="M13.2972 3.41574C12.4419 3.2456 11.5552 3.33293 10.7495 3.66667C9.94379 4.00041 9.25512 4.56559 8.7706 5.29073C8.28608 6.01586 8.02747 6.86839 8.02747 7.74051C8.02747 8.06521 7.76424 8.32844 7.43954 8.32844C7.11483 8.32844 6.85161 8.06521 6.85161 7.74051C6.85161 7.45185 6.87397 7.16488 6.91797 6.88205C6.79978 6.86585 6.68038 6.85799 6.56067 6.8586L6.55764 6.85861C5.85596 6.85861 5.18302 7.13735 4.68685 7.63351C4.19069 8.12968 3.91195 8.80262 3.91195 9.5043C3.91195 10.206 4.19069 10.8789 4.68685 11.3751C5.18302 11.8713 5.85596 12.15 6.55764 12.15H12.437C13.3091 12.15 14.1616 11.8914 14.8867 11.4069C15.6119 10.9223 16.1771 10.2337 16.5108 9.42794C16.8445 8.62222 16.9319 7.73561 16.7617 6.88026C16.5916 6.0249 16.1716 5.23921 15.5549 4.62253C14.9383 4.00585 14.1526 3.58589 13.2972 3.41574ZM7.22223 5.73981C7.37016 5.35424 7.56113 4.98434 7.79291 4.63745C8.40663 3.71894 9.27895 3.00306 10.2995 2.58031C11.3201 2.15757 12.4432 2.04696 13.5266 2.26247C14.6101 2.47799 15.6053 3.00994 16.3864 3.79107C17.1675 4.57219 17.6995 5.56741 17.915 6.65086C18.1305 7.73431 18.0199 8.85734 17.5972 9.87793C17.1744 10.8985 16.4585 11.7708 15.54 12.3846C14.6215 12.9983 13.5416 13.3259 12.437 13.3259H6.55764C5.5441 13.3259 4.57207 12.9232 3.85539 12.2066C3.13871 11.4899 2.73608 10.5178 2.73608 9.5043C2.73608 8.49076 3.13871 7.51873 3.85539 6.80205C4.57172 6.08572 5.54315 5.68314 6.55615 5.68275" fill="white"/>
</svg>
