<svg width="20" height="20" viewBox="0 0 20 20" fill="none" xmlns="http://www.w3.org/2000/svg">
<path fill-rule="evenodd" clip-rule="evenodd" d="M7.00059 3.12555C7.30037 3.00078 7.64453 3.14265 7.76931 3.44243L8.33519 4.80202C8.45996 5.1018 8.31809 5.44596 8.01832 5.57073C7.71854 5.6955 7.37438 5.55363 7.2496 5.25386L6.68372 3.89427C6.55895 3.59449 6.70082 3.25033 7.00059 3.12555Z" fill="white"/>
<path fill-rule="evenodd" clip-rule="evenodd" d="M2.23011 7.89604C2.35488 7.59626 2.69904 7.45439 2.99882 7.57917L4.35841 8.14505C4.65819 8.26982 4.80006 8.61399 4.67528 8.91376C4.55051 9.21354 4.20635 9.35541 3.90657 9.23064L2.54698 8.66475C2.2472 8.53998 2.10533 8.19582 2.23011 7.89604Z" fill="white"/>
<path fill-rule="evenodd" clip-rule="evenodd" d="M18.5284 7.89604C18.6532 8.19582 18.5113 8.53998 18.2116 8.66475L16.852 9.23064C16.5522 9.35541 16.208 9.21354 16.0833 8.91376C15.9585 8.61399 16.1004 8.26982 16.4001 8.14505L17.7597 7.57917C18.0595 7.45439 18.4037 7.59626 18.5284 7.89604Z" fill="white"/>
<path fill-rule="evenodd" clip-rule="evenodd" d="M13.7579 3.12555C14.0577 3.25033 14.1996 3.59449 14.0748 3.89427L13.5089 5.25386C13.3842 5.55363 13.04 5.6955 12.7402 5.57073C12.4404 5.44596 12.2986 5.1018 12.4233 4.80202L12.9892 3.44243C13.114 3.14265 13.4582 3.00078 13.7579 3.12555Z" fill="white"/>
<path fill-rule="evenodd" clip-rule="evenodd" d="M1.5603 12.4506C1.5603 12.1259 1.82353 11.8627 2.14823 11.8627H18.6103C18.935 11.8627 19.1983 12.1259 19.1983 12.4506C19.1983 12.7753 18.935 13.0385 18.6103 13.0385H2.14823C1.82353 13.0385 1.5603 12.7753 1.5603 12.4506Z" fill="white"/>
<path fill-rule="evenodd" clip-rule="evenodd" d="M3.91199 15.3902C3.91199 15.0655 4.17521 14.8023 4.49992 14.8023H16.2586C16.5833 14.8023 16.8465 15.0655 16.8465 15.3902C16.8465 15.7149 16.5833 15.9782 16.2586 15.9782H4.49992C4.17521 15.9782 3.91199 15.7149 3.91199 15.3902Z" fill="white"/>
<path fill-rule="evenodd" clip-rule="evenodd" d="M10.3793 7.44594C9.7899 7.44594 9.20854 7.58225 8.6806 7.84422C8.15267 8.10618 7.69248 8.4867 7.33601 8.95602C6.97954 9.42535 6.73644 9.97076 6.62573 10.5496C6.51502 11.1285 6.5397 11.7251 6.69782 12.2929C6.78494 12.6057 6.602 12.9299 6.2892 13.017C5.9764 13.1041 5.6522 12.9211 5.56507 12.6083C5.35829 11.8659 5.32603 11.0857 5.4708 10.3287C5.61558 9.57176 5.93347 8.85853 6.39962 8.2448C6.86578 7.63107 7.46757 7.13347 8.15794 6.7909C8.84831 6.44833 9.60856 6.27008 10.3793 6.27008C11.15 6.27008 11.9102 6.44833 12.6006 6.7909C13.2909 7.13347 13.8927 7.63107 14.3589 8.2448C14.825 8.85853 15.1429 9.57176 15.2877 10.3287C15.4325 11.0857 15.4002 11.8659 15.1934 12.6083C15.1063 12.9211 14.7821 13.1041 14.4693 13.017C14.1565 12.9299 13.9736 12.6057 14.0607 12.2929C14.2188 11.7251 14.2435 11.1285 14.1328 10.5496C14.0221 9.97076 13.779 9.42535 13.4225 8.95602C13.066 8.4867 12.6058 8.10618 12.0779 7.84422C11.55 7.58225 10.9686 7.44594 10.3793 7.44594Z" fill="white"/>
</svg>
