<svg width="19" height="20" viewBox="0 0 19 20" fill="none" xmlns="http://www.w3.org/2000/svg">
<path fill-rule="evenodd" clip-rule="evenodd" d="M9.92574 1.38619L9.58858 1.86784L9.25142 1.38619C9.45386 1.24448 9.7233 1.24448 9.92574 1.38619ZM9.58858 2.60275C9.44527 2.71454 9.26221 2.86175 9.05071 3.04153C8.5159 3.49612 7.80349 4.15527 7.09258 4.97281C5.65641 6.62441 4.2972 8.84073 4.2972 11.2747C4.2972 12.6781 4.85468 14.024 5.84701 15.0163C6.83934 16.0086 8.18522 16.5661 9.58858 16.5661C10.9919 16.5661 12.3378 16.0086 13.3301 15.0163C14.3225 14.024 14.88 12.6781 14.88 11.2747C14.88 8.84073 13.5208 6.62441 12.0846 4.97281C11.3737 4.15527 10.6613 3.49612 10.1264 3.04153C9.91494 2.86175 9.73189 2.71454 9.58858 2.60275ZM9.25107 1.38643C9.25126 1.3863 9.25142 1.38619 9.58858 1.86784C9.92574 1.38619 9.9259 1.3863 9.92609 1.38643L9.92657 1.38677L9.92795 1.38774L9.93229 1.39081L9.94725 1.40144C9.95995 1.41052 9.97808 1.42356 10.0013 1.44049C10.0476 1.47433 10.1142 1.5237 10.1982 1.58789C10.3661 1.71622 10.6038 1.90404 10.888 2.1456C11.4556 2.62802 12.213 3.32847 12.9719 4.20123C14.4754 5.93024 16.0558 8.41736 16.0558 11.2747C16.0558 12.99 15.3745 14.6349 14.1616 15.8478C12.9488 17.0606 11.3038 17.742 9.58858 17.742C7.87336 17.742 6.22839 17.0606 5.01555 15.8478C3.80271 14.6349 3.12134 12.99 3.12134 11.2747C3.12134 8.41736 4.70179 5.93024 6.20527 4.20123C6.96419 3.32847 7.7216 2.62802 8.28916 2.1456C8.57335 1.90404 8.81102 1.71622 8.97894 1.58789C9.06292 1.5237 9.12954 1.47433 9.1759 1.44049C9.19908 1.42356 9.21721 1.41052 9.22991 1.40144L9.24486 1.39081L9.24921 1.38774L9.25058 1.38677L9.25107 1.38643Z" fill="white"/>
<path fill-rule="evenodd" clip-rule="evenodd" d="M13.1646 11.2906C13.4846 11.3457 13.6993 11.6498 13.6442 11.9698C13.4999 12.808 13.099 13.5808 12.4968 14.1814C11.8946 14.7821 11.1208 15.181 10.2822 15.3232C9.9621 15.3775 9.65858 15.1619 9.60431 14.8418C9.55004 14.5216 9.76557 14.2181 10.0857 14.1639C10.6843 14.0624 11.2366 13.7776 11.6664 13.3489C12.0963 12.9202 12.3824 12.3686 12.4854 11.7703C12.5405 11.4503 12.8446 11.2355 13.1646 11.2906Z" fill="white"/>
</svg>
