<svg width="20" height="20" viewBox="0 0 20 20" fill="none" xmlns="http://www.w3.org/2000/svg">
<path fill-rule="evenodd" clip-rule="evenodd" d="M16.3433 5.97664C15.8562 5.97664 15.4614 6.37148 15.4614 6.85854C15.4614 7.3456 15.8562 7.74044 16.3433 7.74044C16.8303 7.74044 17.2252 7.3456 17.2252 6.85854C17.2252 6.37148 16.8303 5.97664 16.3433 5.97664ZM14.2855 6.85854C14.2855 5.72207 15.2068 4.80078 16.3433 4.80078C17.4798 4.80078 18.401 5.72207 18.401 6.85854C18.401 7.99501 17.4798 8.9163 16.3433 8.9163C15.2068 8.9163 14.2855 7.99501 14.2855 6.85854Z" fill="white"/>
<path fill-rule="evenodd" clip-rule="evenodd" d="M9.5821 2.743C9.11431 2.743 8.66568 2.92883 8.3349 3.25961C8.00413 3.59038 7.8183 4.03901 7.8183 4.5068V11.7825H7.23037L7.59217 12.2459C7.06143 12.6602 6.67328 13.2299 6.48187 13.8755C6.29047 14.521 6.30536 15.2103 6.52446 15.8469C6.74356 16.4836 7.15595 17.036 7.70409 17.4271C8.25223 17.8181 8.90876 18.0283 9.5821 18.0283C10.2554 18.0283 10.912 17.8181 11.4601 17.4271C12.0082 17.036 12.4206 16.4836 12.6397 15.8469C12.8588 15.2103 12.8737 14.521 12.6823 13.8755C12.4909 13.2299 12.1028 12.6602 11.572 12.2459C11.4293 12.1345 11.3459 11.9635 11.3459 11.7825V4.5068C11.3459 4.03901 11.1601 3.59038 10.8293 3.25961C10.4985 2.92883 10.0499 2.743 9.5821 2.743ZM6.64244 11.5081V4.5068C6.64244 3.72715 6.95215 2.97944 7.50344 2.42814C8.05474 1.87685 8.80245 1.56714 9.5821 1.56714C10.3617 1.56714 11.1095 1.87685 11.6607 2.42814C12.212 2.97944 12.5218 3.72715 12.5218 4.5068V11.5081C13.1298 12.0519 13.5767 12.7554 13.8097 13.5412C14.0707 14.4215 14.0504 15.3614 13.7516 16.2296C13.4528 17.0978 12.8905 17.8511 12.143 18.3843C11.3956 18.9176 10.5003 19.2042 9.5821 19.2042C8.66392 19.2042 7.76864 18.9176 7.02118 18.3843C6.27372 17.8511 5.71137 17.0978 5.41259 16.2296C5.11381 15.3614 5.09351 14.4215 5.35452 13.5412C5.58753 12.7554 6.03435 12.0519 6.64244 11.5081Z" fill="white"/>
<path fill-rule="evenodd" clip-rule="evenodd" d="M9.58205 13.9138C9.09499 13.9138 8.70016 14.3086 8.70016 14.7957C8.70016 15.2827 9.09499 15.6776 9.58205 15.6776C10.0691 15.6776 10.464 15.2827 10.464 14.7957C10.464 14.3086 10.0691 13.9138 9.58205 13.9138ZM7.52429 14.7957C7.52429 13.6592 8.44558 12.7379 9.58205 12.7379C10.7185 12.7379 11.6398 13.6592 11.6398 14.7957C11.6398 15.9321 10.7185 16.8534 9.58205 16.8534C8.44558 16.8534 7.52429 15.9321 7.52429 14.7957Z" fill="white"/>
<path fill-rule="evenodd" clip-rule="evenodd" d="M9.65923 6.90991C9.98677 6.90991 10.2523 7.17544 10.2523 7.50298V13.4337C10.2523 13.7612 9.98677 14.0267 9.65923 14.0267C9.33169 14.0267 9.06616 13.7612 9.06616 13.4337V7.50298C9.06616 7.17544 9.33169 6.90991 9.65923 6.90991Z" fill="white"/>
</svg>
