<svg width="19" height="20" viewBox="0 0 19 20" fill="none" xmlns="http://www.w3.org/2000/svg">
<path fill-rule="evenodd" clip-rule="evenodd" d="M11.3522 12.1499C11.782 12.1496 12.2037 12.2671 12.5714 12.4896C12.9392 12.7122 13.2389 13.0314 13.4381 13.4124C13.6372 13.7934 13.7281 14.2217 13.7008 14.6507C13.6736 15.0797 13.5292 15.4931 13.2835 15.8458C13.0378 16.1986 12.7001 16.4772 12.3071 16.6515C11.9141 16.8257 11.4808 16.8889 11.0544 16.8342C10.628 16.7795 10.2248 16.6089 9.88853 16.3411C9.55227 16.0732 9.29588 15.7183 9.1472 15.3149C9.03491 15.0103 9.19086 14.6722 9.49553 14.56C9.8002 14.4477 10.1382 14.6036 10.2505 14.9083C10.3248 15.11 10.453 15.2874 10.6212 15.4213C10.7893 15.5553 10.9909 15.6406 11.2041 15.6679C11.4173 15.6953 11.6339 15.6637 11.8304 15.5766C12.0269 15.4894 12.1958 15.3501 12.3187 15.1737C12.4415 14.9974 12.5137 14.7907 12.5273 14.5762C12.5409 14.3616 12.4955 14.1475 12.3959 13.957C12.2964 13.7665 12.1465 13.6069 11.9626 13.4956C11.7787 13.3843 11.5678 13.3256 11.3529 13.3258L3.12138 13.3258C2.79667 13.3258 2.53345 13.0625 2.53345 12.7378C2.53345 12.4131 2.79667 12.1499 3.12138 12.1499H11.3522Z" fill="white"/>
<path fill-rule="evenodd" clip-rule="evenodd" d="M9.47868 5.19574C9.28218 5.10861 9.06555 5.07701 8.85235 5.10438C8.63915 5.13174 8.43753 5.21702 8.26941 5.35095C8.10128 5.48488 7.97308 5.66233 7.89874 5.86402C7.78645 6.16869 7.44843 6.32464 7.14376 6.21235C6.8391 6.10005 6.68314 5.76204 6.79544 5.45737C6.94411 5.05399 7.20051 4.69909 7.53676 4.43123C7.87301 4.16338 8.27626 3.99281 8.70266 3.93808C9.12906 3.88335 9.5623 3.94655 9.9553 4.12081C10.3483 4.29506 10.686 4.57371 10.9317 4.92646C11.1775 5.27921 11.3218 5.69257 11.349 6.1216C11.3763 6.55064 11.2854 6.97893 11.0863 7.35994C10.8872 7.74094 10.5874 8.06008 10.2196 8.28266C9.85198 8.50515 9.43038 8.62265 9.00065 8.62239H1.94547C1.62077 8.62239 1.35754 8.35917 1.35754 8.03446C1.35754 7.70976 1.62077 7.44653 1.94547 7.44653H9.00065C9.2156 7.4467 9.42695 7.38795 9.61085 7.27666C9.79474 7.16537 9.94462 7.00581 10.0442 6.8153C10.1437 6.6248 10.1892 6.41065 10.1755 6.19614C10.1619 5.98162 10.0898 5.77494 9.9669 5.59857C9.84403 5.42219 9.67518 5.28287 9.47868 5.19574Z" fill="white"/>
<path fill-rule="evenodd" clip-rule="evenodd" d="M15.946 7.54742C15.7495 7.46029 15.5329 7.4287 15.3197 7.45606C15.1065 7.48343 14.9049 7.56871 14.7367 7.70264C14.5686 7.83656 14.4404 8.01402 14.3661 8.2157C14.2538 8.52037 13.9158 8.67632 13.6111 8.56403C13.3064 8.45174 13.1505 8.11372 13.2628 7.80905C13.4114 7.40568 13.6678 7.05077 14.0041 6.78292C14.3403 6.51506 14.7436 6.3445 15.17 6.28977C15.5964 6.23504 16.0296 6.29823 16.4226 6.47249C16.8156 6.64675 17.1533 6.92539 17.3991 7.27814C17.6448 7.63089 17.7891 8.04425 17.8164 8.47329C17.8436 8.90232 17.7527 9.33062 17.5536 9.71162C17.3545 10.0926 17.0548 10.4118 16.687 10.6343C16.3193 10.8568 15.8977 10.9743 15.4679 10.9741C15.4678 10.9741 15.468 10.9741 15.4679 10.9741H2.53349C2.20878 10.9741 1.94556 10.7109 1.94556 10.3861C1.94556 10.0614 2.20878 9.79822 2.53349 9.79822H15.468C15.6829 9.79839 15.8943 9.73964 16.0782 9.62835C16.2621 9.51706 16.4119 9.35749 16.5115 9.16699C16.6111 8.97649 16.6565 8.76234 16.6429 8.54782C16.6292 8.3333 16.5571 8.12662 16.4342 7.95025C16.3114 7.77387 16.1425 7.63455 15.946 7.54742Z" fill="white"/>
</svg>
